# xmcd
#
# Track frame offsets: 
#        150
#        30854
#        57265
#        87868
#        117114
#        144809
#        171396
#        193589
#        221740
#        248531
#        269552
#        300041
#        326133
#
# Disc length: 4677 seconds
#
# Revision: 3
# Processed by: cddbd v1.5.2PL0 Copyright (c) Steve Scherf et al.
# Submitted via: ExactAudioCopy v1.0b1
#
DISCID=a912430d
DTITLE=Various Artist - Beach House [81] CD2
DYEAR=2008
DGENRE=House
TTITLE0=Groove Armada - Love Sweet Sound (Mark Knight and Funkagenda's A
TTITLE0=H.B Mix)
TTITLE1=Miguel Migs - Giving It All (Miguel Migs Dub Deluxe)
TTITLE2=Lisa Shaw - All Night High (Miguel Migs Salted Vocal)
TTITLE3=Yogi and Husky - It Feels Alright (Miguel Migs Petalpusher Rewor
TTITLE3=k)
TTITLE4=Carlos Silva feat. Nelson Freitas and Q-Plus - Cré Sabe (Knee De
TTITLE4=ep Club Mix)
TTITLE5=Rasmus Faber feat. Clara Mendes - Demande - Part 2 (Miguel Mig
TTITLE5=s Remix)
TTITLE6=Chuck Love feat. Estaire Godinez - Bailando
TTITLE7=Africanism All Stars Produced By Bob Sinclar - Meu Carnival
TTITLE8=Benji Candelario and Vincent Qwok feat. Leedia - Quiero Saber (B
TTITLE8=C's and VK's Classic Mix)
TTITLE9=Eyereel Allstars feat. Lucy Clarke - Get It On
TTITLE10=Wez Clarke and Maxine Hardcastle - Walking With A Smile
TTITLE11=Myomi - Sun In My Eyes (MJ Cole Remix)
TTITLE12=Fred Falke - 909 PM At The Beach
EXTD=
EXTT0=
EXTT1=
EXTT2=
EXTT3=
EXTT4=
EXTT5=
EXTT6=
EXTT7=
EXTT8=
EXTT9=
EXTT10=
EXTT11=
EXTT12=
PLAYORDER=
